# xmcd
#
# Track frame offsets: 
#        150
#        16162
#        31075
#        43940
#        56537
#        69212
#        85802
#        101812
#        129700
#        141557
#        152532
#        165870
#        193310
#        205225
#        223355
#
# Disc length: 3280 seconds
#
# Revision: 1
# Processed by: cddbd v1.5.2PL0 Copyright (c) Steve Scherf et al.
# Submitted via: ExactAudioCopy v0.99pb3
#
DISCID=d50cce0f
DTITLE=Nina Simone - Portrait of a Song Stylist
DYEAR=1989
DGENRE=Blues
TTITLE0=Here Comes The Sun
TTITLE1=Angel Of The Morning
TTITLE2=I Am Blessed
TTITLE3=Don't Take All Night
TTITLE4=Do Nothin' Till You Hear From Me
TTITLE5=Solitude
TTITLE6=Satin Doll
TTITLE7=Ain't Got No Home - I Got Life
TTITLE8=Work Song
TTITLE9=It Don't Mean A Thing If You Ain't Got That Swing
TTITLE10=Night Song
TTITLE11=Nina's Blues
TTITLE12=Don't Let Me Be Misunderstood
TTITLE13=I Got It Bad (And That Ain't Good)
TTITLE14=My Way
EXTD=my name is george buzzard and all I ever think about is music
EXTT0=
EXTT1=
EXTT2=
EXTT3=
EXTT4=
EXTT5=
EXTT6=
EXTT7=
EXTT8=
EXTT9=
EXTT10=
EXTT11=
EXTT12=
EXTT13=
EXTT14=
PLAYORDER=
